<?xml version="1.0" encoding="iso-8859-1"?>
<!-- Generator: Adobe Illustrator 19.0.0, SVG Export Plug-In . SVG Version: 6.00 Build 0)  -->
<svg version="1.1" id="Capa_1" xmlns="http://www.w3.org/2000/svg" xmlns:xlink="http://www.w3.org/1999/xlink" x="0px" y="0px"
	 viewBox="0 0 512 512" style="enable-background:new 0 0 512 512;" xml:space="preserve">
<g>
	<g>
		<path d="M456.148,178.603c0.164-2.715,0.263-5.407,0.263-8.034c0-88.731-72.189-160.914-160.914-160.914
			c-51.276,0-98.263,23.687-128.386,64.038c-10.638-3.283-21.914-4.939-33.698-4.939c-61.305,0-111.177,49.872-111.177,111.177
			c0,8.362,0.913,16.407,2.826,24.746C8.836,224.794,0,249.721,0,275.895c0,62.593,50.925,113.518,113.518,113.518h21.65v-35.109
			h-21.65c-43.236,0-78.409-35.173-78.409-78.409c0-20.468,7.806-39.825,21.99-54.512c4.459-4.623,6.045-11.305,4.125-17.431
			c-2.651-8.479-3.885-16.109-3.885-24.02c0-41.943,34.126-76.069,76.069-76.069c12.101,0,22.838,2.311,32.832,7.069
			c8.093,3.856,17.806,0.983,22.505-6.659c22.891-37.262,62.798-59.509,106.753-59.509c69.369,0,125.806,56.437,125.806,125.806
			c0,4.933-0.521,10.79-1.083,16.384c-0.749,7.484,3.341,14.611,10.182,17.73c28.239,12.885,46.49,41.065,46.49,71.797
			c0,20.966-8.151,40.667-22.943,55.466c-14.798,14.792-34.494,22.943-55.466,22.943h-38.619v35.109h38.619
			c30.346,0,58.865-11.802,80.287-33.224C500.198,335.351,512,306.831,512,276.48C512,236.246,490.438,199.066,456.148,178.603z"/>
	</g>
</g>
<g>
	<g>
		<path d="M255.707,301.641c-9.696,0-17.554,7.858-17.554,17.554v97.719c0,9.696,7.858,17.554,17.554,17.554
			c9.696,0,17.554-7.858,17.554-17.554v-97.719C273.262,309.5,265.403,301.641,255.707,301.641z"/>
	</g>
</g>
<g>
	<g>
		<path d="M306.89,339.19l-39.79-33.938c-6.571-5.6-16.226-5.6-22.785,0l-39.79,33.938c-7.379,6.296-8.256,17.373-1.966,24.746
			c3.476,4.078,8.403,6.167,13.365,6.167c4.032,0,8.081-1.381,11.381-4.201l28.403-24.219l28.397,24.213
			c7.373,6.29,18.455,5.413,24.746-1.96S314.263,345.48,306.89,339.19z"/>
	</g>
</g>
<g>
	<g>
		<path d="M255.707,228.498c-75.495,0-136.923,61.428-136.923,136.923c0,75.501,61.422,136.923,136.923,136.923
			s136.923-61.422,136.918-136.923C392.625,289.927,331.203,228.498,255.707,228.498z M255.707,467.231
			c-56.139,0-101.815-45.676-101.815-101.815s45.67-101.809,101.815-101.809c56.139,0,101.809,45.67,101.809,101.809
			S311.846,467.231,255.707,467.231z"/>
	</g>
</g>
<g>
</g>
<g>
</g>
<g>
</g>
<g>
</g>
<g>
</g>
<g>
</g>
<g>
</g>
<g>
</g>
<g>
</g>
<g>
</g>
<g>
</g>
<g>
</g>
<g>
</g>
<g>
</g>
<g>
</g>
</svg>
